# xmcd
#
# Track frame offsets:
#	150
#	28620
#	46618
#	74560
#	99833
#	124988
#	151375
#
# Disc length: 2350 seconds
# Revision: 0
# Processed by: cddbd v1.5.2PL0 Copyright (c) Steve Scherf et al.
# Submitted via: dBpowerAMP V12.0
#
DISCID=53092c07
DTITLE=Nomad - Just A Groove
DYEAR=1991
DGENRE=House
TTITLE0=Just A Groove [Club Mix]
TTITLE1=Just A Groove [7" Edit]
TTITLE2=Just A Groove [Vocal Attack]
TTITLE3=Just A Groove [Rave Mix]
TTITLE4=Just A Groove [The Pete Heller and Terry Farley 'Monday Club' Remix]
TTITLE5=Just A Groove [DJs Rule The Mix Part 1]
TTITLE6=Just A Groove [DJs Rule The  Mix Part 2]
EXTD=
EXTT0=
EXTT1=
EXTT2=
EXTT3=
EXTT4=
EXTT5=
EXTT6=
PLAYORDER=
